<?xml version="1.0" standalone="no"?>
<!DOCTYPE svg PUBLIC "-//W3C//DTD SVG 20010904//EN"
 "http://www.w3.org/TR/2001/REC-SVG-20010904/DTD/svg10.dtd">
<svg version="1.0" xmlns="http://www.w3.org/2000/svg"
 width="711.000000pt" height="711.000000pt" viewBox="0 0 711.000000 711.000000"
 preserveAspectRatio="xMidYMid meet">
<metadata>
Created by potrace 1.11, written by Peter Selinger 2001-2013
</metadata>
<g transform="translate(0.000000,711.000000) scale(0.100000,-0.100000)"
fill="#000000" stroke="none">
<path d="M3397 7104 c-1 -1 -42 -5 -92 -8 -49 -3 -124 -10 -165 -16 -41 -5
-91 -12 -110 -14 -82 -11 -116 -17 -130 -21 -8 -2 -33 -7 -55 -11 -22 -3 -83
-17 -135 -31 -52 -13 -102 -26 -110 -28 -8 -2 -51 -15 -95 -28 -974 -300
-1794 -1035 -2199 -1969 -77 -178 -183 -495 -202 -603 -3 -16 -10 -48 -16 -70
-5 -22 -12 -49 -13 -60 -2 -11 -10 -63 -19 -115 -33 -203 -41 -314 -41 -580 1
-243 7 -345 31 -491 2 -15 6 -45 9 -67 8 -61 43 -227 70 -332 84 -317 219
-638 388 -920 62 -103 169 -262 204 -305 5 -5 22 -28 38 -50 17 -21 37 -47 45
-55 8 -9 25 -30 38 -46 124 -161 466 -478 657 -609 28 -19 68 -47 90 -62 208
-144 523 -302 790 -396 98 -35 301 -96 340 -103 11 -1 51 -10 88 -18 37 -9 82
-18 100 -21 18 -3 39 -8 47 -10 8 -2 40 -7 70 -10 30 -3 62 -7 70 -10 8 -2 47
-7 85 -10 39 -4 90 -9 115 -11 68 -7 424 -7 515 0 395 32 752 115 1097 257
128 53 331 152 399 194 21 14 41 25 44 25 24 0 450 301 495 349 8 9 31 29 50
45 106 86 312 302 435 456 435 546 700 1203 762 1890 15 164 7 630 -11 727 -3
12 -7 47 -11 78 -24 227 -109 552 -212 815 -357 907 -1090 1640 -1997 1997
-125 49 -359 126 -419 137 -12 2 -49 11 -82 20 -134 34 -350 67 -550 82 -68 6
-404 12 -408 8z"/>
</g>
</svg>
