<?xml version="1.0" standalone="no"?>
<!DOCTYPE svg PUBLIC "-//W3C//DTD SVG 20010904//EN"
 "http://www.w3.org/TR/2001/REC-SVG-20010904/DTD/svg10.dtd">
<svg version="1.0" xmlns="http://www.w3.org/2000/svg"
 width="300.000000pt" height="300.000000pt" viewBox="0 0 300.000000 300.000000"
 preserveAspectRatio="xMidYMid meet">
<metadata>
Created by Clemens Schotte
</metadata>
<g transform="translate(0.000000,300.000000) scale(0.100000,-0.100000)"
fill="#000000" stroke="none">
<path d="M1192 2939 c-121 -15 -248 -67 -357 -144 -76 -53 -191 -175 -230
-243 l-30 -52 -133 0 -134 0 4 -172 c5 -217 19 -261 113 -354 l61 -62 12 -110
c13 -130 49 -248 104 -339 l40 -65 -200 -201 c-191 -194 -201 -206 -245 -297
-77 -160 -79 -175 -84 -522 l-5 -308 1398 0 1397 0 -7 153 c-8 179 -17 244
-51 363 -67 231 -225 458 -420 602 -33 24 -62 46 -64 48 -2 2 23 32 55 67 113
120 144 214 144 435 l0 132 -90 0 -90 0 0 305 c0 184 -4 325 -11 357 -52 248
-324 391 -554 289 l-45 -20 -82 44 c-102 53 -195 82 -313 95 -99 11 -94 11
-183 -1z m543 -689 c107 -107 111 -110 154 -110 l44 0 -7 -182 c-8 -228 -15
-273 -66 -374 -97 -197 -336 -344 -560 -344 -159 0 -324 71 -440 189 -132 134
-173 241 -186 491 l-7 133 39 -6 c21 -4 93 -7 158 -7 l119 0 -21 -23 c-19 -20
-22 -35 -22 -104 0 -62 4 -86 17 -102 44 -53 132 -40 158 23 29 68 15 165 -27
197 -20 16 -18 17 53 33 41 9 100 27 131 40 84 35 216 126 278 194 30 33 60
60 65 61 6 0 60 -48 120 -109z m-268 -1271 c-98 -95 -176 -173 -174 -175 2 -2
120 51 263 117 142 67 283 131 313 144 l54 22 46 -25 c77 -43 183 -157 225
-242 50 -104 66 -186 73 -392 l6 -178 -993 0 -993 0 6 193 c6 210 17 269 69
377 36 74 154 199 229 243 l46 26 269 -125 c148 -70 289 -135 314 -146 41 -17
29 -3 -130 157 l-175 175 365 0 365 0 -178 -171z"/>
<path d="M1506 2024 c-24 -24 -26 -34 -26 -106 0 -92 9 -115 56 -134 29 -12
39 -12 68 0 47 19 56 42 56 134 0 72 -2 82 -26 106 -19 19 -37 26 -64 26 -27
0 -45 -7 -64 -26z"/>
</g>
</svg>
